<svg xmlns="http://www.w3.org/2000/svg" version="1.1" xmlns:xlink="http://www.w3.org/1999/xlink" width="1000" height="1000"><g clip-path="url(#SvgjsClipPath1033)"><rect width="1000" height="1000" fill="#ffffff"></rect><g transform="matrix(25,0,0,25,100,100)"><svg xmlns="http://www.w3.org/2000/svg" version="1.1" xmlns:xlink="http://www.w3.org/1999/xlink" width="32" height="32"><svg xmlns="http://www.w3.org/2000/svg" width="32" height="32" viewBox="0 0 24 24"><path fill="#fb5a04" d="m12 12.9l-2.13 2.09c-.56.56-.87 1.29-.87 2.07C9 18.68 10.35 20 12 20s3-1.32 3-2.94c0-.78-.31-1.52-.87-2.07z" class="duoicon-primary-layer"></path><path fill="#fb5a04" d="m16 6l-.44.55C14.38 8.02 12 7.19 12 5.3V2S4 6 4 13c0 2.92 1.56 5.47 3.89 6.86c-.56-.79-.89-1.76-.89-2.8c0-1.32.52-2.56 1.47-3.5L12 10.1l3.53 3.47c.95.93 1.47 2.17 1.47 3.5c0 1.02-.31 1.96-.85 2.75c1.89-1.15 3.29-3.06 3.71-5.3c.66-3.55-1.07-6.9-3.86-8.52" class="duoicon-secondary-layer" opacity=".3"></path></svg></svg></g></g><defs><clipPath id="SvgjsClipPath1033"><rect width="1000" height="1000" x="0" y="0" rx="350" ry="350"></rect></clipPath></defs></svg>