<svg fill="currentColor" xmlns="http://www.w3.org/2000/svg" version="1.1" viewBox="-5.0 -10.0 110.0 135.0"><path d="m49.699 72.121c-3.1836-0.41016-5.4844-3.2734-5.4844-6.4805v-31.371c0-1.1211-0.80469-2.1484-1.9258-2.2617-1.2852-0.12891-2.3711 0.87891-2.3711 2.1367v23.977c0 3.2109-2.3008 6.0703-5.4844 6.4805-3.8516 0.49219-7.1445-2.5078-7.1445-6.2617v-16.551c0-1.1211-0.80469-2.1484-1.9258-2.2617-1.2852-0.12891-2.3711 0.87891-2.3711 2.1367v4.1055c0 3.4883-2.8281 6.3164-6.3164 6.3164h-2.1484c-1.1523 0-2.082-0.93359-2.082-2.082 0-1.1523 0.93359-2.082 2.082-2.082h2.1484c1.1875 0 2.1484-0.96094 2.1484-2.1484v-3.8867c0-3.2109 2.3008-6.0742 5.4844-6.4805 3.8516-0.49219 7.1445 2.5078 7.1445 6.2617v16.551c0 1.1211 0.80469 2.1484 1.9219 2.2617 1.2852 0.13281 2.3711-0.87891 2.3711-2.1367v-23.977c0-3.2109 2.3008-6.0742 5.4844-6.4805 3.8516-0.49219 7.1445 2.5078 7.1445 6.2617v31.59c0 1.1211 0.80469 2.1484 1.9258 2.2617 1.2852 0.12891 2.3711-0.87891 2.3711-2.1367v-25.918c0-3.2109 2.3008-6.0703 5.4844-6.4805 3.8516-0.49219 7.1445 2.5078 7.1445 6.2617v15.18c0 1.1211 0.80469 2.1484 1.9258 2.2617 1.2852 0.12891 2.3711-0.87891 2.3711-2.1367v-11.016c0-3.2109 2.3008-6.0703 5.4844-6.4805 3.8516-0.49219 7.1445 2.5078 7.1445 6.2617v1.9805c0 1.1875 0.96094 2.1484 2.1484 2.1484h1.0859c1.1523 0 2.082 0.93359 2.082 2.082 0 1.1523-0.93359 2.082-2.082 2.082h-1.0859c-3.4883 0-6.3164-2.8281-6.3164-6.3164v-1.8516c0-1.1211-0.80469-2.1484-1.9219-2.2617-1.2852-0.13281-2.3711 0.87891-2.3711 2.1367v11.016c0 3.2109-2.3008 6.0742-5.4844 6.4805-3.8516 0.49219-7.1445-2.5078-7.1445-6.2617v-15.176c0-1.1211-0.80469-2.1484-1.9219-2.2617-1.2852-0.13281-2.3711 0.87891-2.3711 2.1367v26.137c0 3.7539-3.293 6.7539-7.1445 6.2617z"/></svg>